<?xml version="1.0" standalone="no"?><!DOCTYPE svg PUBLIC "-//W3C//DTD SVG 1.1//EN" "http://www.w3.org/Graphics/SVG/1.1/DTD/svg11.dtd"><svg class="icon" height="512" viewBox="0 0 1024 1024" version="1.1" xmlns="http://www.w3.org/2000/svg"><path d="M512 512m-512 0a512 512 0 1 0 1024 0 512 512 0 1 0-1024 0Z" fill="#31BAFD" /><path d="M1005.302 649.484L607.6 251.784l-130.94 373.132-227.032 173.822 223.826 223.826c12.726 0.946 25.578 1.436 38.546 1.436 235.14 0 433.232-158.52 493.302-374.516z" fill="#2B9ED8" /><path d="M774.376 798.738H249.628V709.8c0-63.216 40.454-119.34 100.424-139.33l96.356-32.12h131.186l96.356 32.12c59.972 19.99 100.424 76.114 100.424 139.33v88.938z" fill="#E9EFF4" /><path d="M774.376 709.8c0-63.216-40.45-119.34-100.424-139.33l-96.356-32.12h-65.592v260.386h262.372V709.8z" fill="#D0D1D3" /><path d="M577.594 538.352L512 603.942l-65.592-65.59v-65.596h131.186z" fill="#FED8B2" /><path d="M577.594 472.756h-65.59v131.186l65.59-65.59z" fill="#EFC095" /><path d="M380.814 341.572c0-72.452 58.734-131.186 131.186-131.186s131.186 58.734 131.186 131.186-58.734 196.78-131.186 196.78-131.186-124.328-131.186-196.78z" fill="#F4E3C3" /><path d="M643.19 341.572c0-72.452-58.734-131.186-131.186-131.186v327.966c72.452-0.004 131.186-124.328 131.186-196.78z" fill="#FED8B2" /><path d="M643.19 341.572c0-72.452-58.734-131.186-131.186-131.186s-131.186 58.734-131.186 131.186c0 28.914 9.374 66.074 25.22 100.31-3.714-19.708-2.72-39.856-0.772-55.058 83.268-6.534 163.622-45.49 163.622-45.49s10.172 18.694 48.318 35.322c2.704 15.518 5.372 40.754 0.73 65.294 15.864-34.254 25.254-71.448 25.254-100.378z" fill="#3F3B3B" /><path d="M643.19 341.572c0-72.452-58.734-131.186-131.186-131.186v153.382c33.996-11.34 56.886-22.434 56.886-22.434s10.172 18.694 48.318 35.322c2.704 15.518 5.372 40.754 0.734 65.294 15.858-34.254 25.248-71.448 25.248-100.378z" fill="#272525" /><path d="M484.418 796.444l18.386-170.666h18.392l18.386 170.666z" fill="#FC9483" /><path d="M521.196 625.778h-9.192v170.666h27.578z" fill="#FD8469" /><path d="M512 796.444l-95.6-248.09-66.346 22.118c-59.972 19.99-100.424 76.114-100.424 139.33v88.936h262.376v-2.3l-0.006 0.006z" fill="#324A5E" /><path d="M774.376 709.8c0-63.216-40.45-119.34-100.424-139.33L607.6 548.354 512 796.438v2.3h262.372V709.8h0.004z" fill="#2B3B4E" /><path d="M607.6 548.354l18.178 77.424-34.478 17.238 34.478 39.65L512 796.444z" fill="#1B2B3A" /><path d="M416.4 548.354l-18.178 77.424 34.478 17.238-34.478 39.65L512 796.444z" fill="#2B3B4E" /><path d="M548.202 604.228l-24.134 56.89h-24.136l-24.134-56.89z" fill="#FD8469" /><path d="M548.202 604.228h-36.198v56.89h12.064z" fill="#FC6F58" /><path d="M568.888 625.778l38.712-77.424-30.006-10.002L512 603.942z" fill="#E9EFF4" /><path d="M455.112 625.778L416.4 548.354l30.006-10.002L512 603.942z" fill="#FFFFFF" /></svg>